# xmcd
#
# Track frame offsets:
#	150
#	2640
#	9567
#	20445
#	27915
#	32782
#	43675
#	47950
#	56567
#	66812
#	77475
#	79512
#	82895
#	94082
#	99227
#	105725
#	115545
#	127410
#	135350
#	145050
#	156420
#
# Disc length: 2129 seconds
#
# Revision: 1
# Processed by: cddbd v1.5.1PL0 Copyright (c) Steve Scherf et al.
# Submitted via: CDex 1.50Beta5
#
DISCID=03084f15
DTITLE=小一堂宣伝社社中 - 日本の大道芸 チンドン屋
DYEAR=2001
DGENRE=World
TTITLE0=一龍斎春水/一龍斎春水ナレーション
TTITLE1=小一堂宣伝社社中/たけす
TTITLE2=小一堂宣伝社社中/美しき天然
TTITLE3=万宣社社中/花笠音頭
TTITLE4=野村宣伝社社中/きぬた
TTITLE5=小一堂宣伝社社中/花と蝶
TTITLE6=小一堂宣伝社社中/野毛山
TTITLE7=小一堂宣伝社社中/真室川音頭
TTITLE8=万宣社社中/野崎小唄
TTITLE9=小一堂宣伝社社中/名月赤城山
TTITLE10=小一堂宣伝社社中/口上
TTITLE11=一龍斎春水/一龍斎春水ナレーション
TTITLE12=小一堂宣伝社社中/恋の季節
TTITLE13=小一堂宣伝社社中/千鳥
TTITLE14=野村宣伝社社中/道頓堀行進曲
TTITLE15=万宣社社中/米洗い
TTITLE16=小一堂宣伝社社中/南国土佐を後にして
TTITLE17=野村宣伝社社中/炭坑節
TTITLE18=小一堂宣伝社社中/お富さん
TTITLE19=小一堂宣伝社社中/四丁目
TTITLE20=一龍斎春水/一龍斎春水ナレーション
EXTD=
EXTT0=
EXTT1=
EXTT2=
EXTT3=
EXTT4=
EXTT5=
EXTT6=
EXTT7=
EXTT8=
EXTT9=
EXTT10=
EXTT11=
EXTT12=
EXTT13=
EXTT14=
EXTT15=
EXTT16=
EXTT17=
EXTT18=
EXTT19=
EXTT20=
PLAYORDER=
